<?xml version="1.0" encoding="UTF-8" standalone="no"?>
<!-- Created with Inkscape (http://www.inkscape.org/) -->

<svg
   xmlns:dc="http://purl.org/dc/elements/1.1/"
   xmlns:cc="http://creativecommons.org/ns#"
   xmlns:rdf="http://www.w3.org/1999/02/22-rdf-syntax-ns#"
   xmlns:svg="http://www.w3.org/2000/svg"
   xmlns="http://www.w3.org/2000/svg"
   xmlns:sodipodi="http://sodipodi.sourceforge.net/DTD/sodipodi-0.dtd"
   xmlns:inkscape="http://www.inkscape.org/namespaces/inkscape"
   width="144.7738mm"
   height="56.391602mm"
   viewBox="0 0 144.7738 56.391602"
   version="1.1"
   id="svg5791"
   inkscape:version="0.92.2 5c3e80d, 2017-08-06"
   sodipodi:docname="web_plantilla.svg">
  <defs
     id="defs5785" />
  <sodipodi:namedview
     id="base"
     pagecolor="#ffffff"
     bordercolor="#666666"
     borderopacity="1.0"
     inkscape:pageopacity="0.0"
     inkscape:pageshadow="2"
     inkscape:zoom="1.4"
     inkscape:cx="110.39988"
     inkscape:cy="87.924409"
     inkscape:document-units="mm"
     inkscape:current-layer="layer1"
     showgrid="false"
     fit-margin-top="0"
     fit-margin-left="0"
     fit-margin-right="0"
     fit-margin-bottom="0"
     inkscape:window-width="1920"
     inkscape:window-height="1025"
     inkscape:window-x="0"
     inkscape:window-y="27"
     inkscape:window-maximized="1" />
  <metadata
     id="metadata5788">
    <rdf:RDF>
      <cc:Work
         rdf:about="">
        <dc:format>image/svg+xml</dc:format>
        <dc:type
           rdf:resource="http://purl.org/dc/dcmitype/StillImage" />
        <dc:title></dc:title>
      </cc:Work>
    </rdf:RDF>
  </metadata>
  <g
     inkscape:label="Capa 1"
     inkscape:groupmode="layer"
     id="layer1"
     transform="translate(-38.08704,-65.946632)">
    <rect
       style="opacity:0.69899998;fill:#ffffff;fill-opacity:1;fill-rule:nonzero;stroke:#000000;stroke-width:0.26499999;stroke-linecap:square;stroke-linejoin:miter;stroke-miterlimit:4;stroke-dasharray:none;stroke-dashoffset:10.01574802;stroke-opacity:0;paint-order:markers fill stroke"
       id="rect6597"
       width="144.5088"
       height="56.126602"
       x="38.21954"
       y="66.079132" />
    <path
       id="path6336"
       overflow="visible"
       d="m 53.518965,79.83235 c -1.77937,0 -3.38783,0.728445 -4.53926,1.909961 -0.0822,-0.175335 -0.15813,-0.408433 -0.2067,-0.727604 a 0.26460979,0.26460979 0 0 0 -0.45476,-0.14056 c -0.42412,0.468397 -0.58389,1.119089 -0.66145,1.645378 -0.0701,0.475873 -0.0601,0.789092 -0.0579,0.859895 -0.28092,0.411568 -0.47523,0.725815 -0.57878,0.959115 -0.11141,0.251018 -0.1404,0.448936 -0.14056,0.603581 0,0.112153 0.005,0.18148 0.0165,0.239778 0.006,0.02915 0.0128,0.05479 0.0248,0.08268 0.006,0.01394 0.0152,0.02629 0.0248,0.04134 0.01,0.01505 0.0331,0.04961 0.0331,0.04961 a 0.26460979,0.26460979 0 0 0 0.13229,0.07441 c -0.0667,0.288863 -0.13229,0.626973 -0.13229,1.03353 0,1.243839 0.54929,2.74491 1.63711,3.952213 1.08782,1.207303 2.72672,2.108399 4.86999,2.108399 2.58049,0 4.26718,-1.430205 5.26686,-3.017904 0.99968,-1.587699 1.35599,-3.303398 1.35599,-4.084505 0,-0.513255 -0.0901,-0.89253 -0.11576,-1.000456 a 0.26460979,0.26460979 0 0 0 -0.30592,-0.198437 c -0.0308,-0.237911 -0.0209,-0.39804 -0.0827,-0.661459 -0.13911,-0.59269 -0.37427,-1.199552 -0.76895,-1.637109 -0.0263,-0.02917 -0.0383,-0.0717 -0.0662,-0.09922 a 0.26460979,0.26460979 0 0 0 -0.42995,0.09922 c -0.12075,-0.140222 -0.20771,-0.283317 -0.37206,-0.413405 -0.16818,-0.133118 -0.36003,-0.252686 -0.57878,-0.363803 -1.0707,-0.825569 -2.41419,-1.314648 -3.86953,-1.314648 z m 0,0.529167 c 0.61124,0 1.19858,0.09842 1.75286,0.272851 -0.1211,-0.006 -0.24346,-0.0078 -0.37207,-0.0083 a 0.26460979,0.26460979 0 0 0 -0.0248,0 0.26487414,0.26487414 0 0 0 0.0248,0.529167 c 0.34093,0 0.63055,0.124734 0.84336,0.272851 0.004,0.0025 0.005,0.0057 0.008,0.0083 -0.11411,0.02032 -0.22937,0.03914 -0.30592,0.06615 a 0.26460979,0.26460979 0 0 0 -0.0165,0.487826 c 0.6292,0.268223 1.26566,0.591965 1.70325,0.959114 0.26014,0.218257 0.41243,0.443093 0.50437,0.686263 -0.0617,-0.02206 -0.10626,-0.07147 -0.19017,-0.06615 a 0.26460979,0.26460979 0 0 0 -0.21498,0.380339 c 0.2136,0.426744 0.21907,0.973459 0.16537,1.537891 -0.01,-0.01144 -0.0496,-0.06615 -0.0496,-0.06615 a 0.26460979,0.26460979 0 0 0 -0.46302,0.223242 c 0,0 0.0821,0.480228 0.0413,1.091406 -0.0165,0.247137 -0.0712,0.513301 -0.14056,0.768945 a 0.26460979,0.26460979 0 0 0 -0.41341,0.03307 c 0,0 -0.26622,0.405922 -0.69454,0.810287 -0.42831,0.404365 -1.00405,0.785482 -1.59576,0.785482 -0.82196,0 -1.32728,-0.258328 -1.69499,-0.520899 0.41655,-0.05782 0.79951,-0.161027 1.08314,-0.297656 0.22036,-0.10615 0.39369,-0.216853 0.5209,-0.305925 0.0636,-0.04454 0.11952,-0.0781 0.15709,-0.107486 0.0376,-0.02939 0.0733,-0.06068 0.0579,-0.04961 0.0636,-0.04566 0.0804,-0.0493 0.0827,-0.04961 0.002,-3.18e-4 0.0186,0.0052 0.0909,0.02481 0.14731,0.04005 0.26162,-0.0037 0.3638,-0.07441 0.10219,-0.07072 0.19844,-0.202594 0.19844,-0.363802 0,-0.136703 -0.0534,-0.229631 -0.11575,-0.322461 -0.0624,-0.09283 -0.14532,-0.183786 -0.24805,-0.264585 -0.20545,-0.161598 -0.4888,-0.289388 -0.83509,-0.289388 -0.37692,0 -0.63847,0.136721 -0.82682,0.239779 -0.18836,0.103057 -0.3036,0.173633 -0.56224,0.173633 -0.1881,0 -0.52066,-0.197413 -0.77722,-0.429948 -0.12827,-0.116268 -0.24353,-0.229155 -0.32246,-0.322461 -0.0301,-0.03561 -0.0472,-0.066 -0.0662,-0.09095 0.004,-0.03232 0.004,-0.06456 0.0165,-0.09095 0.0182,-0.03801 0.0398,-0.05133 0.10749,-0.06615 0.19611,0.03278 0.37762,0.07059 0.51263,0.09922 0.15222,0.03227 0.22941,0.05262 0.34727,0.05788 a 0.26460979,0.26460979 0 0 0 0.27285,-0.214975 c 0.0539,-0.302034 0.002,-0.570682 -0.0662,-0.777213 -0.0352,-0.105916 -0.057,-0.128824 -0.0909,-0.198438 0.0845,-0.07856 0.18157,-0.169801 0.31419,-0.264583 0.17808,-0.127272 0.31573,-0.21103 0.38034,-0.256315 0.10372,-0.07256 0.17323,-0.15973 0.23151,-0.256315 0.0583,-0.09659 0.10749,-0.189644 0.10749,-0.338998 0,-0.141467 -0.0946,-0.264721 -0.16537,-0.314192 -0.0708,-0.04947 -0.14056,-0.05788 -0.14056,-0.05788 a 0.26460979,0.26460979 0 0 0 -0.0496,-0.0083 c 0,0 -0.13375,-0.0056 -0.3638,-0.02481 -0.40894,-0.03443 -0.3043,-0.03339 -0.53744,-0.239777 -0.095,-0.08396 -0.21585,-0.224309 -0.29765,-0.314192 0.0104,-0.0416 0.003,-0.05331 0.0744,-0.190169 0.11214,-0.214034 0.3307,-0.528017 0.75241,-0.909506 a 0.26460979,0.26460979 0 0 0 -0.17364,-0.463021 c -0.46602,0 -0.91178,0.238654 -1.26503,0.463021 -0.29271,0.185913 -0.43503,0.321922 -0.50437,0.380339 -0.0995,-0.03704 -0.19085,-0.09095 -0.45475,-0.09095 -0.43348,0 -0.71131,0.08493 -0.87643,0.148828 1.05815,-1.10678 2.54634,-1.794206 4.20026,-1.794206 z m 2.91042,0.992187 c 0.25261,0.06889 0.47928,0.146778 0.67799,0.239779 0.003,0.0024 0.005,0.0059 0.008,0.0083 0.002,0.001 0.006,-10e-4 0.008,0 a 0.26542175,0.26542175 0 0 0 0.0331,0.02481 0.26542175,0.26542175 0 0 0 0.0496,0.02481 c 0.002,0.0011 0.006,-0.0011 0.008,0 0.16231,0.08357 0.30741,0.175862 0.42995,0.272851 0.5291,0.418792 0.75465,0.921843 0.86816,1.289844 a 0.26460979,0.26460979 0 0 0 0.45476,0.09095 c 0.0401,0.126449 0.0936,0.242435 0.12402,0.37207 0.13671,0.582499 0.1819,1.168199 0.1819,1.471745 a 0.26460979,0.26460979 0 0 0 0.30583,0.264581 c 10e-6,0.0042 0,0.0041 0,0.0083 0,0.604516 -0.33756,2.317221 -1.27331,3.803385 -0.93574,1.486165 -2.43358,2.769857 -4.82037,2.769857 -1.99535,0 -3.47298,-0.824781 -4.47311,-1.934765 -1.00014,-1.109986 -1.50482,-2.512453 -1.50482,-3.596682 0,-0.825953 0.27285,-1.480013 0.27285,-1.480013 a 0.26460979,0.26460979 0 0 0 -0.28851,-0.363802 c 0.0109,-0.02835 10e-4,-0.03203 0.0165,-0.06615 0.0891,-0.200692 0.26005,-0.503113 0.57051,-0.950846 a 0.26460979,0.26460979 0 0 0 0.0413,-0.157097 c 0,0 -0.0121,-0.37713 0.0579,-0.851627 0.0414,-0.281059 0.13167,-0.576981 0.24805,-0.851628 0.0684,0.187204 0.14464,0.350458 0.22324,0.479557 a 0.26460979,0.26460979 0 0 0 0,0.0083 c 0.002,0.0029 0.007,0.0054 0.008,0.0083 a 0.26460979,0.26460979 0 0 0 0.16536,0.214974 c 10e-4,0.0013 0.007,-0.0013 0.008,0 0.16164,0.16837 0.31419,0.248047 0.31419,0.248047 a 0.26460979,0.26460979 0 0 0 0.22325,-0.0083 c 0,0 0.32249,-0.157096 0.82682,-0.157096 0.25479,0 0.40514,0.07441 0.40514,0.07441 a 0.26460979,0.26460979 0 0 0 0.28939,-0.04134 c 0,0 0.2289,-0.203929 0.5457,-0.405144 0.0386,-0.02451 0.0832,-0.04247 0.12403,-0.06615 -0.0655,0.09709 -0.13934,0.199875 -0.1819,0.28112 -0.14286,0.272667 -0.17364,0.479556 -0.17364,0.479556 a 0.26460979,0.26460979 0 0 0 0.0661,0.206706 c 0,0 0.25023,0.29691 0.43821,0.46302 0.20502,0.181491 0.37865,0.332946 0.84336,0.372071 0.0897,0.0075 0.0872,0.0043 0.14883,0.0083 -0.008,0.0086 -0.0228,0.03165 -0.0248,0.03307 0.005,-0.0037 -0.18886,0.119466 -0.38034,0.256315 -0.19147,0.136847 -0.40035,0.288585 -0.53743,0.463019 a 0.26460979,0.26460979 0 0 0 -0.0248,0.28112 c 0.038,0.07606 0.0903,0.163073 0.14056,0.314192 0.0231,0.06962 0.0138,0.158935 0.0248,0.239779 -0.1515,-0.03197 -0.34128,-0.07121 -0.57051,-0.107487 a 0.26460979,0.26460979 0 0 0 -0.0827,0 c -0.25887,0.03867 -0.44274,0.217125 -0.5209,0.380339 -0.0782,0.163214 -0.0827,0.305513 -0.0827,0.37207 a 0.26460979,0.26460979 0 0 0 0.0165,0.07441 c 0.019,0.06722 0.0292,0.07127 0.0413,0.09095 0.0122,0.01968 0.0181,0.03723 0.0331,0.05788 0.0299,0.0413 0.0692,0.09377 0.11576,0.148828 0.0931,0.110117 0.22306,0.245285 0.37207,0.380339 0.29801,0.270107 0.67923,0.562239 1.13275,0.562239 0.37345,0 0.63093,-0.137122 0.81855,-0.239778 0.18762,-0.102656 0.30688,-0.173633 0.57051,-0.173633 0.21172,0 0.38834,0.08414 0.51263,0.181901 0.0301,0.02368 0.0437,0.04257 0.0662,0.06615 -0.037,-0.0024 -0.0665,-0.01397 -0.10749,-0.0083 -0.11701,0.01629 -0.22496,0.07059 -0.32246,0.14056 -0.0342,0.02463 -0.0421,0.03258 -0.0744,0.05788 -0.0323,0.0253 -0.078,0.06118 -0.13229,0.09922 -0.10866,0.07609 -0.25717,0.173388 -0.44649,0.264584 -0.37863,0.182393 -0.90238,0.340566 -1.52962,0.289388 a 0.26460979,0.26460979 0 0 0 -0.19844,0.454753 c 0.21358,0.202104 1.07397,1.07487 2.57142,1.07487 0.8074,0 1.48183,-0.475009 1.95957,-0.926042 0.10362,-0.09782 0.0802,-0.105111 0.16537,-0.198438 -0.007,0.02246 3e-5,0.03737 -0.008,0.05788 a 0.26460979,0.26460979 0 0 0 0.42995,0.289388 c 0.0273,-0.02695 0.0406,-0.06302 0.0661,-0.09095 0.53709,-0.586893 0.71753,-1.370053 0.76067,-2.017448 0.004,-0.05966 -0.0102,-0.05019 -0.008,-0.107487 a 0.26460979,0.26460979 0 0 0 0.35554,-0.190169 c 0.14696,-0.648067 0.2433,-1.356554 0.13229,-2.017448 a 0.26460979,0.26460979 0 0 0 0.31423,-0.223243 c 0.10533,-0.69081 -0.2629,-1.271786 -0.77727,-1.703347 -0.28821,-0.241815 -0.62754,-0.443069 -0.98392,-0.628385 a 0.26460979,0.26460979 0 0 0 0.0992,-0.297657 c -0.0311,-0.09756 -0.0912,-0.175192 -0.15709,-0.256315 z"
       style="line-height:normal;font-family:'Bitstream Vera Sans';-inkscape-font-specification:'Bitstream Vera Sans';text-indent:0;text-align:start;text-transform:none;overflow:visible;stroke-width:0.26458332;enable-background:accumulate"
       inkscape:connector-curvature="0" />
    <path
       id="path6347"
       overflow="visible"
       d="m 53.494155,94.493696 c -3.65,0 -6.61458,2.96458 -6.61458,6.614584 0,3.64999 2.96458,6.61457 6.61458,6.61457 3.65,0 6.61459,-2.96458 6.61459,-6.61457 0,-3.650004 -2.96459,-6.614584 -6.61459,-6.614584 z m 0,0.52916 c 2.36927,0 4.41845,1.35025 5.42396,3.32383 h -4.25814 c -0.35771,-0.15002 -0.75386,-0.23978 -1.16582,-0.23978 -1.27502,0 -2.36372,0.79904 -2.80293,1.918234 l -2.28203,-2.257224 c 1.08706,-1.65438 2.95496,-2.74506 5.08496,-2.74506 z m -5.1263,2.80293 c 0.41778,0.72359 1.42279,2.461134 2.14974,3.720714 0.20717,1.46129 1.45838,2.58794 2.97656,2.58794 0.11854,0 0.23217,-0.0113 0.34727,-0.0248 l -0.72761,3.06751 c -3.18617,-0.19623 -5.70507,-2.8328 -5.70507,-6.06887 0,-1.208944 0.35265,-2.336024 0.95911,-3.282494 z m 10.57507,0.57878 c 0.40457,0.81481 0.63665,1.731304 0.63665,2.703714 0,3.36401 -2.7214,6.08541 -6.08542,6.08541 -0.0996,0 -0.19924,-0.004 -0.29765,-0.008 0.4207,-0.72777 1.39508,-2.42056 2.11666,-3.6711 0.72311,-0.55005 1.19063,-1.41107 1.19063,-2.3895 0,-0.68448 -0.22688,-1.321404 -0.61185,-1.827284 z m -5.44877,0.32246 c 1.31498,0 2.38125,1.06601 2.38125,2.381254 0,1.31524 -1.06627,2.38124 -2.38125,2.38124 -1.31524,0 -2.38125,-1.066 -2.38125,-2.38124 0,-1.315244 1.06601,-2.381254 2.38125,-2.381254 z"
       style="line-height:normal;font-family:'Bitstream Vera Sans';-inkscape-font-specification:'Bitstream Vera Sans';text-indent:0;text-align:start;text-transform:none;overflow:visible;stroke-width:0.26458332;enable-background:accumulate"
       inkscape:connector-curvature="0" />
    <path
       id="path6358"
       overflow="visible"
       d="m 156.1688,77.55335 c -2.46764,0 -4.7066,0.432811 -6.4362,1.186735 -0.86478,0.376973 -1.60228,0.817942 -2.183,1.416423 -0.58076,0.598485 -1.01627,1.403292 -1.01627,2.296907 v 14.700197 c 0,3.185058 4.81775,4.900068 9.63547,4.900068 1.08396,0 2.16047,-0.10723 3.12399,-0.2297 -0.72267,-0.61251 -1.21194,-1.47766 -1.69374,-2.335176 -0.48175,0.12251 -0.9485,0.114871 -1.43025,0.114871 -4.45641,0 -7.2266,-1.59252 -7.2266,-2.450021 v -1.607841 c 1.80663,0.980011 4.57686,1.607827 7.2266,1.607827 h 0.71515 c 0,-0.367474 -0.11289,-0.735005 -0.11289,-1.225003 0,-0.367489 -0.008,-0.857516 0.11289,-1.225032 h -0.71515 c -4.45641,0 -7.2266,-1.59252 -7.2266,-2.450021 v -1.607838 c 1.80663,0.980009 4.57686,1.607838 7.2266,1.607838 0.48175,0 0.97859,0.0085 1.58084,-0.114871 0.60221,-1.225012 1.5507,-2.212685 2.63466,-2.947695 -1.20442,0.367481 -2.64973,0.61251 -4.2155,0.61251 -4.45641,0 -7.2266,-1.59252 -7.2266,-2.450035 v -1.607832 c 0.25765,0.142327 0.50393,0.296227 0.7904,0.421097 1.7296,0.753925 3.96856,1.186735 6.4362,1.186735 2.46765,0 4.70659,-0.43281 6.4362,-1.186735 0.28633,-0.124873 0.53292,-0.27877 0.79039,-0.421097 v 1.607832 c 0,0.245019 -0.2408,0.474693 -0.60221,0.842199 0.60221,-0.122511 1.20442,-0.229694 1.80663,-0.229694 0.36145,0 0.84312,-0.0074 1.20446,0.114871 v -5.627421 c 0,-0.893616 -0.43564,-1.698422 -1.01628,-2.296909 -0.58072,-0.598481 -1.31821,-1.039464 -2.18299,-1.416423 -1.72961,-0.753923 -3.96855,-1.186734 -6.4362,-1.186734 z m 0,2.45003 c 2.18869,0 4.1734,0.419152 5.49521,0.995326 0.66093,0.288078 1.15772,0.599616 1.43026,0.880484 0.27267,0.280855 0.3009,0.452998 0.3009,0.574225 0,0.121209 -0.0273,0.293355 -0.3009,0.574225 -0.27268,0.280854 -0.76933,0.592392 -1.43026,0.880484 -1.32181,0.576182 -3.30652,0.995326 -5.49521,0.995326 -2.18869,0 -4.17339,-0.419153 -5.49522,-0.995326 -0.66093,-0.288078 -1.15771,-0.599612 -1.43026,-0.880484 -0.27266,-0.280855 -0.30089,-0.452998 -0.30089,-0.574225 0,-0.121209 0.0273,-0.293355 0.30089,-0.574225 0.27268,-0.280854 0.76933,-0.592392 1.43026,-0.880484 1.32183,-0.576182 3.30653,-0.995326 5.49522,-0.995326 z m 7.22659,9.800134 c -0.12067,0 -0.22578,0.107189 -0.22578,0.229694 l -0.15069,1.607839 c -0.36143,0.12251 -0.69256,0.367474 -1.05387,0.612509 l -1.4679,-0.612509 c -0.12067,-0.12251 -0.33867,-0.0071 -0.33867,0.114871 l -1.20442,2.220335 c -0.12067,0.122511 -0.008,0.344515 0.11289,0.344515 l 1.31735,0.995332 v 0.612508 0.612509 l -1.31735,0.995318 c -0.48177,0.12251 -0.48927,0.22206 -0.48927,0.344528 l 1.20441,2.220337 c 0.12067,0.12251 0.25584,0.23734 0.37647,0.11487 l 1.43026,-0.612509 c 0.36143,0.24502 0.73021,0.490009 1.09151,0.612509 l 0.1129,1.60784 c 0,0.12251 0.10511,0.22969 0.22579,0.22969 h 2.40884 c 0.12067,0 0.26357,-0.10724 0.26357,-0.22969 l 0.11289,-1.60784 c 0.36145,-0.12251 0.73016,-0.367489 1.09153,-0.612509 l 1.43024,0.612509 c 0.12067,0.12251 0.37647,0.008 0.37647,-0.11487 l 1.20442,-2.220337 c 0.12067,-0.12251 0.008,-0.344528 -0.11289,-0.344528 l -0.86568,-0.995318 V 95.928608 95.3161 l 1.31736,-0.995332 c 0.12067,-0.122511 0.15067,-0.222047 0.15067,-0.344515 l -1.20442,-2.220335 c -0.12067,-0.12251 -0.25583,-0.237339 -0.37645,-0.114871 l -1.5808,0.612509 c -0.36144,-0.245021 -0.69258,-0.490013 -1.05388,-0.612509 l -0.15068,-1.607839 c 0,-0.12251 -0.10567,-0.229694 -0.22578,-0.229694 z m 1.09153,3.675045 c 1.32487,0 2.40887,1.102522 2.40887,2.450035 0,1.347514 -1.084,2.450035 -2.40887,2.450035 -1.32488,0 -2.40888,-1.102521 -2.40888,-2.450035 0,-1.347513 1.084,-2.450035 2.40888,-2.450035 z"
       style="line-height:normal;font-family:'Bitstream Vera Sans';-inkscape-font-specification:'Bitstream Vera Sans';text-indent:0;text-align:start;text-transform:none;overflow:visible;stroke-width:0.26458332;enable-background:accumulate"
       inkscape:connector-curvature="0" />
    <path
       id="path6369"
       d="m 96.077934,78.284849 c -0.663987,0 -1.260964,0.369192 -1.557911,0.962641 l -2.067294,4.135445 c -0.149783,0.300425 -0.229607,0.637153 -0.229607,0.972845 v 4.378657 c 0,0.522916 0.23634,0.986616 0.602076,1.306199 -0.365736,0.319583 -0.602076,0.783283 -0.602076,1.306198 v 2.612397 c 0,0.522916 0.23634,0.986616 0.602076,1.306199 -0.365736,0.319583 -0.602076,0.783283 -0.602076,1.306198 v 2.612397 c 0,0.960495 0.781108,1.741595 1.7416,1.741595 h 19.157548 c 0.96049,0 1.74159,-0.7811 1.74159,-1.741595 v -2.612397 c 0,-0.522915 -0.23634,-0.986615 -0.60207,-1.306198 0.36573,-0.319583 0.60207,-0.783283 0.60207,-1.306199 v -2.612397 c 0,-0.522915 -0.23634,-0.986615 -0.60207,-1.306198 0.36573,-0.319583 0.60207,-0.783283 0.60207,-1.306199 V 84.35578 c 0,-0.335692 -0.0798,-0.672835 -0.22959,-0.973696 l -2.06731,-4.134594 c -0.29693,-0.593449 -0.89392,-0.962641 -1.55791,-0.962641 z m 0,0.8708 H 111.0082 c 0.33221,0 0.6305,0.184813 0.77896,0.481319 l 2.06815,4.134595 c 0.0905,0.181126 0.13773,0.382627 0.13773,0.584217 v 0.02467 H 93.093922 v -0.02467 c 0,-0.20159 0.04764,-0.403961 0.13777,-0.584217 l 2.067295,-4.134595 c 0.14846,-0.296506 0.44718,-0.481319 0.778947,-0.481319 z m 0.0638,0.870798 c -0.24078,0 -0.435397,0.194624 -0.435397,0.4354 0,0.240775 0.194617,0.435399 0.435397,0.435399 h 11.320376 c 0.24076,0 0.43539,-0.194624 0.43539,-0.435399 0,-0.240776 -0.19463,-0.4354 -0.43539,-0.4354 z m 13.061966,0 c -0.24079,0 -0.4354,0.194624 -0.4354,0.4354 0,0.240775 0.19461,0.435399 0.4354,0.435399 h 1.74159 c 0.24079,0 0.43541,-0.194624 0.43541,-0.435399 0,-0.240776 -0.19462,-0.4354 -0.43541,-0.4354 z M 93.093943,85.251241 H 113.9931 v 3.483196 c 0,0.480245 -0.39057,0.8708 -0.87081,0.8708 H 93.964722 c -0.480247,0 -0.8708,-0.390555 -0.8708,-0.8708 z m 17.851347,0.870799 c -0.72015,0 -1.3062,0.586048 -1.3062,1.306199 0,0.720151 0.58605,1.306198 1.3062,1.306198 0.72015,0 1.3062,-0.586047 1.3062,-1.306198 0,-0.720151 -0.58605,-1.306199 -1.3062,-1.306199 z m -15.674353,0.435399 c -0.240777,0 -0.435397,0.194624 -0.435397,0.435401 v 0.870798 c 0,0.240776 0.19462,0.4354 0.435397,0.4354 0.24078,0 0.4354,-0.194624 0.4354,-0.4354 V 86.99284 c 0,-0.240777 -0.19462,-0.435401 -0.4354,-0.435401 z m 2.176988,0 c -0.240777,0 -0.435387,0.194624 -0.435387,0.435401 v 0.870798 c 0,0.240776 0.19461,0.4354 0.435387,0.4354 0.24077,0 0.4354,-0.194624 0.4354,-0.4354 V 86.99284 c 0,-0.240777 -0.19463,-0.435401 -0.4354,-0.435401 z m 2.176988,0 c -0.240777,0 -0.435407,0.194624 -0.435407,0.435401 v 0.870798 c 0,0.240776 0.19463,0.4354 0.435407,0.4354 0.24077,0 0.435397,-0.194624 0.435397,-0.4354 V 86.99284 c 0,-0.240777 -0.194627,-0.435401 -0.435397,-0.435401 z m 2.176987,0 c -0.24077,0 -0.43539,0.194624 -0.43539,0.435401 v 0.870798 c 0,0.240776 0.19462,0.4354 0.43539,0.4354 0.24079,0 0.43541,-0.194624 0.43541,-0.4354 V 86.99284 c 0,-0.240777 -0.19462,-0.435401 -0.43541,-0.435401 z m 2.177,0 c -0.24078,0 -0.43539,0.194624 -0.43539,0.435401 v 0.870798 c 0,0.240776 0.19461,0.4354 0.43539,0.4354 0.24077,0 0.4354,-0.194624 0.4354,-0.4354 V 86.99284 c 0,-0.240777 -0.19463,-0.435401 -0.4354,-0.435401 z m 6.96639,0.345259 c 0.29042,0 0.52554,0.235564 0.52554,0.525541 0,0.290411 -0.23557,0.52554 -0.52554,0.52554 -0.28997,0 -0.52554,-0.235129 -0.52554,-0.52554 0,-0.290412 0.23512,-0.525541 0.52554,-0.525541 z m -5.22479,0.09015 c -0.24077,0 -0.4354,0.194622 -0.4354,0.435399 0,0.240776 0.19463,0.435399 0.4354,0.435399 h 2.61239 c 0.24079,0 0.43541,-0.194623 0.43541,-0.435399 0,-0.240777 -0.19462,-0.435399 -0.43541,-0.435399 z M 93.964726,90.47604 h 19.157544 c 0.48024,0 0.87081,0.390554 0.87081,0.870799 v 2.612397 c 0,0.480245 -0.39057,0.8708 -0.87081,0.8708 H 93.964722 c -0.480247,0 -0.8708,-0.390555 -0.8708,-0.8708 v -2.612397 c 0,-0.480245 0.390553,-0.870799 0.8708,-0.870799 z m 16.980544,0.870799 c -0.72015,0 -1.3062,0.586048 -1.3062,1.306199 0,0.720151 0.58605,1.306198 1.3062,1.306198 0.72015,0 1.3062,-0.586047 1.3062,-1.306198 0,-0.720151 -0.58605,-1.306199 -1.3062,-1.306199 z m -15.674353,0.435399 c -0.240777,0 -0.435397,0.194624 -0.435397,0.435401 v 0.870798 c 0,0.240776 0.19462,0.4354 0.435397,0.4354 0.24078,0 0.4354,-0.194624 0.4354,-0.4354 v -0.870798 c 0,-0.240777 -0.19462,-0.435401 -0.4354,-0.435401 z m 2.176988,0 c -0.240777,0 -0.435387,0.194624 -0.435387,0.435401 v 0.870798 c 0,0.240776 0.19461,0.4354 0.435387,0.4354 0.24077,0 0.4354,-0.194624 0.4354,-0.4354 v -0.870798 c 0,-0.240777 -0.19463,-0.435401 -0.4354,-0.435401 z m 2.176988,0 c -0.240777,0 -0.435407,0.194624 -0.435407,0.435401 v 0.870798 c 0,0.240776 0.19463,0.4354 0.435407,0.4354 0.24077,0 0.435397,-0.194624 0.435397,-0.4354 v -0.870798 c 0,-0.240777 -0.194627,-0.435401 -0.435397,-0.435401 z m 2.176987,0 c -0.24077,0 -0.43539,0.194624 -0.43539,0.435401 v 0.870798 c 0,0.240776 0.19462,0.4354 0.43539,0.4354 0.24079,0 0.43541,-0.194624 0.43541,-0.4354 v -0.870798 c 0,-0.240777 -0.19462,-0.435401 -0.43541,-0.435401 z m 2.177,0 c -0.24078,0 -0.43539,0.194624 -0.43539,0.435401 v 0.870798 c 0,0.240776 0.19461,0.4354 0.43539,0.4354 0.24077,0 0.4354,-0.194624 0.4354,-0.4354 v -0.870798 c 0,-0.240777 -0.19463,-0.435401 -0.4354,-0.435401 z m 6.96639,0.345259 c 0.28997,0 0.52554,0.235565 0.52554,0.525541 0,0.290411 -0.23512,0.52554 -0.52554,0.52554 -0.29042,0 -0.52554,-0.235565 -0.52554,-0.52554 0,-0.290412 0.23557,-0.525541 0.52554,-0.525541 z m -5.22479,0.09015 c -0.24077,0 -0.4354,0.194622 -0.4354,0.435399 0,0.240776 0.19463,0.435398 0.4354,0.435398 h 2.61239 c 0.24079,0 0.43541,-0.194622 0.43541,-0.435398 0,-0.240777 -0.19462,-0.435399 -0.43541,-0.435399 z m -11.755754,3.483194 h 19.157544 c 0.48024,0 0.87081,0.390555 0.87081,0.8708 v 2.612397 c 0,0.480245 -0.39057,0.870802 -0.87081,0.870802 H 93.964722 c -0.480247,0 -0.8708,-0.390557 -0.8708,-0.870802 v -2.612397 c 0,-0.480245 0.390553,-0.8708 0.8708,-0.8708 z m 16.980544,0.8708 c -0.72015,0 -1.3062,0.586047 -1.3062,1.306199 0,0.720151 0.58605,1.306198 1.3062,1.306198 0.72015,0 1.3062,-0.586047 1.3062,-1.306198 0,-0.720152 -0.58605,-1.306199 -1.3062,-1.306199 z M 95.270917,97.00704 c -0.240777,0 -0.435397,0.194624 -0.435397,0.435401 v 0.870797 c 0,0.240777 0.19462,0.435401 0.435397,0.435401 0.24078,0 0.4354,-0.194624 0.4354,-0.435401 v -0.870797 c 0,-0.240777 -0.19462,-0.435401 -0.4354,-0.435401 z m 2.176988,0 c -0.240777,0 -0.435387,0.194624 -0.435387,0.435401 v 0.870797 c 0,0.240777 0.19461,0.435401 0.435387,0.435401 0.24077,0 0.4354,-0.194624 0.4354,-0.435401 v -0.870797 c 0,-0.240777 -0.19463,-0.435401 -0.4354,-0.435401 z m 2.176988,0 c -0.240777,0 -0.435407,0.194624 -0.435407,0.435401 v 0.870797 c 0,0.240777 0.19463,0.435401 0.435407,0.435401 0.24077,0 0.435397,-0.194624 0.435397,-0.435401 v -0.870797 c 0,-0.240777 -0.194627,-0.435401 -0.435397,-0.435401 z m 2.176987,0 c -0.24077,0 -0.43539,0.194624 -0.43539,0.435401 v 0.870797 c 0,0.240777 0.19462,0.435401 0.43539,0.435401 0.24079,0 0.43541,-0.194624 0.43541,-0.435401 v -0.870797 c 0,-0.240777 -0.19462,-0.435401 -0.43541,-0.435401 z m 2.177,0 c -0.24078,0 -0.43539,0.194624 -0.43539,0.435401 v 0.870797 c 0,0.240777 0.19461,0.435401 0.43539,0.435401 0.24077,0 0.4354,-0.194624 0.4354,-0.435401 v -0.870797 c 0,-0.240777 -0.19463,-0.435401 -0.4354,-0.435401 z m 6.96639,0.32655 c 0.30042,0 0.54425,0.243823 0.54425,0.54425 0,0.300424 -0.24383,0.544249 -0.54425,0.544249 -0.30042,0 -0.54425,-0.243825 -0.54425,-0.544249 0,-0.300427 0.24383,-0.54425 0.54425,-0.54425 z m -5.22479,0.108857 c -0.24077,0 -0.4354,0.194622 -0.4354,0.435399 0,0.240777 0.19463,0.435399 0.4354,0.435399 h 2.61239 c 0.24079,0 0.43541,-0.194622 0.43541,-0.435399 0,-0.240777 -0.19462,-0.435399 -0.43541,-0.435399 z"
       inkscape:connector-curvature="0"
       style="stroke-width:0.26458335" />
    <path
       id="path6474"
       d="m 63.516614,81.348782 13.552722,-0.89232 v -2.809929 c 0,-0.292671 0.163273,-0.512191 0.489857,-0.731704 0.326584,-0.07318 0.653142,-0.07318 0.898071,0.07319 3.347361,2.048773 6.531434,5.482443 6.613074,5.628783 0.07961,0.14188 0.155134,0.35068 0.160226,0.49612 0,0.004 0.0031,0.0108 0.0031,0.0152 0,0 0,0 0,0 0,0 0,0 0,0 0,0.14633 -0.08166,0.36585 -0.163273,0.43902 -0.08166,0.14634 -3.184073,3.58979 -6.613074,5.63859 -0.326584,0.14637 -0.653142,0.21956 -0.898071,0.0732 -0.326584,-0.14637 -0.489857,-0.36586 -0.489857,-0.65853 v -2.81083 l -13.552721,-0.89231 c -0.408213,-0.28464 -0.734786,-1.00386 -0.734786,-1.78911 0,-0.71385 0.244928,-1.49375 0.734786,-1.77929 z"
       inkscape:connector-curvature="0"
       style="stroke-width:0.26458332" />
    <path
       id="path6474-6"
       d="m 120.24858,80.506194 13.55272,-0.89232 v -2.809929 c 0,-0.292671 0.16328,-0.512191 0.48986,-0.731704 0.32658,-0.07318 0.65314,-0.07318 0.89807,0.07319 3.34736,2.048773 6.53143,5.482443 6.61307,5.628783 0.0796,0.14188 0.15514,0.35068 0.16023,0.49612 0,0.004 0.003,0.0108 0.003,0.0152 0,0 0,0 0,0 0,0 0,0 0,0 0,0.14633 -0.0817,0.36585 -0.16327,0.43902 -0.0817,0.14634 -3.18408,3.58979 -6.61308,5.63859 -0.32658,0.14637 -0.65314,0.21956 -0.89807,0.0732 -0.32658,-0.14637 -0.48985,-0.36586 -0.48985,-0.65853 v -2.81083 l -13.55273,-0.89231 c -0.40821,-0.28464 -0.73478,-1.00386 -0.73478,-1.78911 0,-0.71385 0.24493,-1.49375 0.73478,-1.77929 z"
       inkscape:connector-curvature="0"
       style="stroke-width:0.26458332" />
    <path
       id="path6474-8"
       d="m 84.763481,98.121465 -13.552722,-0.89232 v -2.80993 c 0,-0.292671 -0.163273,-0.512191 -0.489857,-0.731704 -0.326584,-0.07318 -0.653142,-0.07318 -0.898071,0.07319 -3.347361,2.048773 -6.531434,5.48244 -6.613074,5.62878 -0.07961,0.14188 -0.155134,0.35068 -0.160226,0.49612 0,0.004 -0.0031,0.0108 -0.0031,0.0152 0,0 0,0 0,0 0,0 0,0 0,0 0,0.146329 0.08166,0.365849 0.163273,0.439019 0.08166,0.14634 3.184073,3.58979 6.613074,5.63859 0.326584,0.14637 0.653142,0.21956 0.898071,0.0732 0.326584,-0.14637 0.489857,-0.36586 0.489857,-0.65853 v -2.81083 l 13.552721,-0.89231 c 0.408213,-0.28464 0.734786,-1.00386 0.734786,-1.789109 0,-0.71385 -0.244928,-1.493747 -0.734786,-1.779287 z"
       inkscape:connector-curvature="0"
       style="stroke-width:0.26458332" />
    <text
       xml:space="preserve"
       style="font-style:normal;font-weight:normal;font-size:10.58333302px;line-height:1.25;font-family:sans-serif;letter-spacing:0px;word-spacing:0px;fill:#000000;fill-opacity:1;stroke:none;stroke-width:0.26458332"
       x="59.247772"
       y="79.758186"
       id="text6517"><tspan
         sodipodi:role="line"
         id="tspan6515"
         x="59.247772"
         y="79.758186"
         style="font-style:normal;font-variant:normal;font-weight:900;font-stretch:normal;font-size:7.05555534px;line-height:21.05000114;font-family:'Source Code Pro';-inkscape-font-specification:'Source Code Pro Heavy';stroke-width:0.26458332">HTTP</tspan></text>
    <path
       id="path6519"
       d="m 73.916282,103.60848 c -0.345519,0 -0.626698,0.28118 -0.626698,0.6267 v 8.77377 c 0,0.34552 0.281179,0.6267 0.626698,0.6267 h 10.44497 c 0.345519,0 0.626699,-0.28118 0.626699,-0.6267 v -8.77377 c 0,-0.34552 -0.28118,-0.6267 -0.626699,-0.6267 z m 0,0.4178 h 10.44497 c 0.115313,0 0.208897,0.0938 0.208897,0.2089 v 8.77377 c 0,0.11511 -0.09358,0.20891 -0.208897,0.20891 h -10.44497 c -0.115312,0 -0.208896,-0.0938 -0.208896,-0.20891 v -6.89368 h 8.564868 c 0.115525,0 0.208904,-0.0936 0.208904,-0.20889 0,-0.11532 -0.09338,-0.2089 -0.208904,-0.2089 h -8.564868 v -1.4623 c 0,-0.1151 0.09358,-0.2089 0.208896,-0.2089 z m 0.626698,0.4178 c -0.115525,0 -0.208896,0.0936 -0.208896,0.2089 v 0.4178 c 0,0.11531 0.09337,0.2089 0.208896,0.2089 0.115518,0 0.208897,-0.0936 0.208897,-0.2089 v -0.4178 c 0,-0.11531 -0.09338,-0.2089 -0.208897,-0.2089 z m 1.0445,0 c -0.115526,0 -0.208905,0.0936 -0.208905,0.2089 v 0.4178 c 0,0.11531 0.09338,0.2089 0.208905,0.2089 0.115517,0 0.208896,-0.0936 0.208896,-0.2089 v -0.4178 c 0,-0.11531 -0.09338,-0.2089 -0.208896,-0.2089 z m 1.044491,0 c -0.115518,0 -0.208897,0.0936 -0.208897,0.2089 v 0.4178 c 0,0.11531 0.09338,0.2089 0.208897,0.2089 0.115526,0 0.208905,-0.0936 0.208905,-0.2089 v -0.4178 c 0,-0.11531 -0.09338,-0.2089 -0.208905,-0.2089 z m 1.0445,0 c -0.115526,0 -0.208897,0.0936 -0.208897,0.2089 v 0.4178 c 0,0.11531 0.09337,0.2089 0.208897,0.2089 0.115517,0 0.208896,-0.0936 0.208896,-0.2089 v -0.4178 c 0,-0.11531 -0.09338,-0.2089 -0.208896,-0.2089 z m 1.044499,0 c -0.115526,0 -0.208905,0.0936 -0.208905,0.2089 v 0.4178 c 0,0.11531 0.09338,0.2089 0.208905,0.2089 0.115518,0 0.208897,-0.0936 0.208897,-0.2089 v -0.4178 c 0,-0.11531 -0.09338,-0.2089 -0.208897,-0.2089 z m 1.044491,0 c -0.115517,0 -0.208896,0.0936 -0.208896,0.2089 v 0.4178 c 0,0.11531 0.09338,0.2089 0.208896,0.2089 0.115526,0 0.208905,-0.0936 0.208905,-0.2089 v -0.4178 c 0,-0.11531 -0.09338,-0.2089 -0.208905,-0.2089 z m 1.0445,0 c -0.115526,0 -0.208897,0.0936 -0.208897,0.2089 v 0.4178 c 0,0.11531 0.09337,0.2089 0.208897,0.2089 0.115518,0 0.208897,-0.0936 0.208897,-0.2089 v -0.4178 c 0,-0.11531 -0.09338,-0.2089 -0.208897,-0.2089 z m 1.044499,0 c -0.115525,0 -0.208904,0.0936 -0.208904,0.2089 v 0.4178 c 0,0.11531 0.09338,0.2089 0.208904,0.2089 0.115518,0 0.208897,-0.0936 0.208897,-0.2089 v -0.4178 c 0,-0.11531 -0.09338,-0.2089 -0.208897,-0.2089 z m 1.044492,0 c -0.115518,0 -0.208897,0.0936 -0.208897,0.2089 v 0.4178 c 0,0.11531 0.09338,0.2089 0.208897,0.2089 0.115525,0 0.208904,-0.0936 0.208904,-0.2089 v -0.4178 c 0,-0.11531 -0.09338,-0.2089 -0.208904,-0.2089 z m 1.044499,0 c -0.115525,0 -0.208897,0.0936 -0.208897,0.2089 v 0.4178 c 0,0.11531 0.09337,0.2089 0.208897,0.2089 0.115518,0 0.208897,-0.0936 0.208897,-0.2089 v -0.4178 c 0,-0.11531 -0.09338,-0.2089 -0.208897,-0.2089 z m -0.835595,1.2534 c -0.115525,0 -0.208904,0.0936 -0.208904,0.2089 0,0.11531 0.09338,0.20889 0.208904,0.20889 h 0.835595 c 0.115518,0 0.208897,-0.0936 0.208897,-0.20889 0,-0.11532 -0.09338,-0.2089 -0.208897,-0.2089 z m -7.938178,1.25339 c -0.115525,0 -0.208896,0.0936 -0.208896,0.2089 v 0.8356 c 0,0.11531 0.09337,0.2089 0.208896,0.2089 h 7.938178 c 0.115518,0 0.208897,-0.0936 0.208897,-0.2089 v -0.8356 c 0,-0.11531 -0.09338,-0.2089 -0.208897,-0.2089 z m 0.208897,0.4178 h 7.520377 v 0.4178 h -7.520377 z m -0.208897,1.6712 c -0.115525,0 -0.208896,0.0936 -0.208896,0.20889 0,0.11532 0.09337,0.20891 0.208896,0.20891 h 3.342387 c 0.115526,0 0.208905,-0.0936 0.208905,-0.20891 0,-0.11531 -0.09338,-0.20889 -0.208905,-0.20889 z m 4.595783,0 c -0.115517,0 -0.208896,0.0936 -0.208896,0.20889 v 2.50679 c 0,0.11532 0.09338,0.20891 0.208896,0.20891 h 3.342395 c 0.115518,0 0.208897,-0.0936 0.208897,-0.20891 v -2.50679 c 0,-0.11531 -0.09338,-0.20889 -0.208897,-0.20889 z m 0.208905,0.4178 h 2.924586 v 2.08899 h -2.924586 z m -4.804688,0.41779 c -0.115525,0 -0.208896,0.0936 -0.208896,0.20891 0,0.11531 0.09337,0.20889 0.208896,0.20889 h 1.671198 c 0.115518,0 0.208897,-0.0936 0.208897,-0.20889 0,-0.11532 -0.09338,-0.20891 -0.208897,-0.20891 z m 2.506793,0 c -0.115526,0 -0.208897,0.0936 -0.208897,0.20891 0,0.11531 0.09337,0.20889 0.208897,0.20889 h 0.417801 c 0.115518,0 0.208897,-0.0936 0.208897,-0.20889 0,-0.11532 -0.09338,-0.20891 -0.208897,-0.20891 z m -2.506793,0.8356 c -0.115525,0 -0.208896,0.0936 -0.208896,0.2089 0,0.11531 0.09337,0.2089 0.208896,0.2089 h 3.342387 c 0.115526,0 0.208905,-0.0936 0.208905,-0.2089 0,-0.11531 -0.09338,-0.2089 -0.208905,-0.2089 z m 0,0.8356 c -0.115525,0 -0.208896,0.0936 -0.208896,0.20889 0,0.11532 0.09337,0.20891 0.208896,0.20891 h 1.253396 c 0.115518,0 0.208897,-0.0936 0.208897,-0.20891 0,-0.11531 -0.09338,-0.20889 -0.208897,-0.20889 z"
       inkscape:connector-curvature="0"
       style="stroke-width:0.26458332" />
    <path
       style="stroke-width:0.26458332"
       inkscape:connector-curvature="0"
       d="m 140.09677,94.396819 -13.55272,-0.89232 V 90.69457 c 0,-0.292671 -0.16328,-0.512191 -0.48986,-0.731704 -0.32658,-0.07318 -0.65314,-0.07318 -0.89807,0.07319 -3.34736,2.048773 -6.53143,5.482443 -6.61307,5.628783 -0.0796,0.14188 -0.15514,0.35068 -0.16023,0.49612 0,0.004 -0.003,0.0108 -0.003,0.0152 0,0 0,0 0,0 0,0 0,0 0,0 0,0.14633 0.0817,0.36585 0.16327,0.43902 0.0817,0.14634 3.18408,3.589791 6.61308,5.638591 0.32658,0.14637 0.65314,0.21956 0.89807,0.0732 0.32658,-0.14637 0.48985,-0.36586 0.48985,-0.65853 v -2.810831 l 13.55273,-0.89231 c 0.40821,-0.28464 0.73478,-1.00386 0.73478,-1.78911 0,-0.71385 -0.24493,-1.49375 -0.73478,-1.77929 z"
       id="path6539" />
    <g
       id="g6595"
       transform="matrix(0.90608118,0,0,1.0657764,-18.982755,5.3447904)"
       style="stroke-width:1.01761472">
      <path
         inkscape:connector-curvature="0"
         id="path6571"
         d="m 109.83657,95.451841 0.0294,0.34314 0.54903,6.206079 0.0196,0.2157 0.20589,0.0588 2.49027,0.6961 0.0784,0.0196 0.0882,-0.0196 2.49028,-0.6863 0.20589,-0.0589 0.0196,-0.21569 0.55883,-6.215889 0.0294,-0.33334 h -0.34315 l -6.07863,-0.009 z"
         style="fill:#ffffff;stroke-width:0.2692439" />
      <path
         style="stroke-width:0.2692439"
         inkscape:connector-curvature="0"
         d="m 110.36649,96.042471 0.0248,0.28939 0.46302,5.233789 0.0165,0.1819 0.17364,0.0496 2.10013,0.58704 0.0662,0.0165 0.0744,-0.0165 2.10013,-0.57878 0.17363,-0.0496 0.0165,-0.18191 0.47129,-5.242049 0.0248,-0.28112 h -0.28939 l -5.1263,-0.008 z m 0.57878,0.52917 4.54753,0.008 -0.42995,4.762499 -1.84382,0.51262 -1.85208,-0.51263 z m 0.63665,0.79375 0.17364,1.9761 h 1.46347 0.80202 l -0.0744,0.851629 -0.7276,0.19844 h -0.008 l -0.72761,-0.19844 -0.0413,-0.545699 h -0.66145 l 0.091,1.050059 1.33945,0.37207 h 0.008 l 1.33945,-0.37207 0.1819,-2.009179 h -2.38952 l -0.0579,-0.66972 h 2.50528 l 0.0579,-0.65319 h -1.63712 z"
         id="path6541" />
    </g>
    <text
       xml:space="preserve"
       style="font-style:normal;font-weight:normal;font-size:4.05735016px;line-height:1.25;font-family:sans-serif;letter-spacing:0px;word-spacing:0px;fill:#ffffff;fill-opacity:1;stroke:none;stroke-width:0.26458332"
       x="66.481689"
       y="83.979073"
       id="text6517-1"><tspan
         sodipodi:role="line"
         id="tspan6515-7"
         x="66.481689"
         y="83.979073"
         style="font-style:normal;font-variant:normal;font-weight:900;font-stretch:normal;font-size:2.70490026px;line-height:21.05000114;font-family:'Source Code Pro';-inkscape-font-specification:'Source Code Pro Heavy';fill:#ffffff;fill-opacity:1;stroke-width:0.26458332">GET/POST</tspan><tspan
         sodipodi:role="line"
         x="66.481689"
         y="115.36172"
         style="font-style:normal;font-variant:normal;font-weight:900;font-stretch:normal;font-size:2.70490026px;line-height:21.05000114;font-family:'Source Code Pro';-inkscape-font-specification:'Source Code Pro Heavy';fill:#ffffff;fill-opacity:1;stroke-width:0.26458332"
         id="tspan6657" /></text>
    <text
       xml:space="preserve"
       style="font-style:normal;font-weight:normal;font-size:4.05735016px;line-height:1.25;font-family:sans-serif;letter-spacing:0px;word-spacing:0px;fill:#ffffff;fill-opacity:1;stroke:none;stroke-width:0.26458332"
       x="68.710373"
       y="100.4978"
       id="text6517-1-2"><tspan
         sodipodi:role="line"
         id="tspan6515-7-4"
         x="68.710373"
         y="100.4978"
         style="font-style:normal;font-variant:normal;font-weight:900;font-stretch:normal;font-size:2.7049005px;line-height:21.05000114;font-family:'Source Code Pro';-inkscape-font-specification:'Source Code Pro Heavy';fill:#ffffff;fill-opacity:1;stroke-width:0.26458332">HTML</tspan><tspan
         sodipodi:role="line"
         x="68.710373"
         y="131.88046"
         style="font-style:normal;font-variant:normal;font-weight:900;font-stretch:normal;font-size:2.7049005px;line-height:21.05000114;font-family:'Source Code Pro';-inkscape-font-specification:'Source Code Pro Heavy';fill:#ffffff;fill-opacity:1;stroke-width:0.26458332"
         id="tspan6657-1" /></text>
  </g>
</svg>
